<svg width="209" height="49" viewBox="0 0 209 49" fill="none" xmlns="http://www.w3.org/2000/svg">
<path d="M16.3019 40.316C14.9915 39.8369 13.8767 39.4009 12.584 38.8953C14.1511 37.3666 15.5262 36.9169 17.6684 37.3751C22.6171 38.4336 27.0532 37.1231 30.4709 33.3483C33.8715 29.5922 34.7609 25.1723 33.0456 20.5483C32.2582 18.4256 31.8542 16.5992 32.9817 14.6328C37.2742 18.3345 38.3071 25.8726 35.2853 31.8169C31.8069 38.6592 24.7668 41.8601 16.3019 40.316Z" fill="#AEB5B1"/>
<path d="M4.29894 21.8199C7.00653 9.15949 21.2613 6.05819 27.741 10.6475C26.3344 11.9808 24.9141 12.388 22.794 12.0008C12.6949 10.1566 4.34912 19.8649 8.04136 29.1772C8.85898 31.2394 8.7761 32.8274 7.59502 34.7324C4.59503 30.8691 3.42265 26.7012 4.29894 21.8199Z" fill="#AEB5B1"/>
<path d="M19.866 17.463C23.5074 15.4263 26.9976 13.4823 30.4935 11.5352C31.9726 14.3026 31.7804 17.077 29.4851 18.5293C24.42 21.7339 19.1234 24.5953 13.9232 27.5957C12.1225 24.6063 12.8724 21.6781 15.7281 19.8228C17.0056 18.9929 18.3828 18.307 19.866 17.463Z" fill="#4BA5A1"/>
<path d="M21.4836 25.1807C22.9016 24.3733 24.1727 23.6651 25.4244 22.926C27.1436 21.9109 28.0821 22.6814 27.8056 24.2971C27.5169 25.984 27.0868 28.2684 25.863 29.0763C20.9172 32.3414 15.6415 35.1377 10.4985 38.1008C8.55718 35.0801 9.21006 32.2756 12.2611 30.4006C15.2152 28.5852 18.3003 26.9695 21.4836 25.1807Z" fill="#4BA6A1"/>
<path d="M68.2326 21.2472C68.136 20.8892 67.994 20.5739 67.8065 20.3011C67.619 20.0227 67.3888 19.7869 67.1161 19.5938C66.8434 19.4006 66.5309 19.2557 66.1786 19.1591C65.8263 19.0568 65.44 19.0057 65.0195 19.0057C64.1729 19.0057 63.44 19.2102 62.8207 19.6193C62.207 20.0284 61.7326 20.625 61.3974 21.4091C61.0621 22.1875 60.8945 23.1335 60.8945 24.2472C60.8945 25.3665 61.0565 26.321 61.3803 27.1108C61.7042 27.9006 62.1729 28.5028 62.7866 28.9176C63.4002 29.3324 64.1445 29.5398 65.0195 29.5398C65.7923 29.5398 66.4457 29.4148 66.9798 29.1648C67.5195 28.9091 67.9286 28.5483 68.207 28.0824C68.4854 27.6165 68.6246 27.0682 68.6246 26.4375L69.4087 26.5312H65.1644V23.4545H72.69V25.7642C72.69 27.3267 72.3576 28.6648 71.6928 29.7784C71.0337 30.892 70.1246 31.7472 68.9656 32.3438C67.8121 32.9403 66.4854 33.2386 64.9854 33.2386C63.3207 33.2386 61.8576 32.8778 60.5962 32.1562C59.3349 31.4347 58.3519 30.4062 57.6474 29.071C56.9428 27.7301 56.5906 26.1392 56.5906 24.2983C56.5906 22.8665 56.8036 21.5966 57.2298 20.4886C57.6559 19.375 58.2496 18.4318 59.011 17.6591C59.7781 16.8864 60.6644 16.3011 61.6701 15.9034C62.6815 15.5057 63.7695 15.3068 64.9343 15.3068C65.9457 15.3068 66.886 15.4517 67.7553 15.7415C68.6303 16.0312 69.4031 16.4403 70.0735 16.9688C70.7496 17.4972 71.2979 18.125 71.7184 18.8523C72.1388 19.5795 72.4002 20.3778 72.5025 21.2472H68.2326ZM75.1765 33V19.9091H79.2248V22.2955H79.3612C79.5998 21.4318 79.989 20.7898 80.5288 20.3693C81.0685 19.9432 81.6964 19.7301 82.4123 19.7301C82.6055 19.7301 82.8043 19.7443 83.0089 19.7727C83.2134 19.7955 83.4038 19.8324 83.5799 19.8835V23.5057C83.381 23.4375 83.1197 23.3835 82.7958 23.3438C82.4776 23.304 82.1935 23.2841 81.9435 23.2841C81.4492 23.2841 81.0032 23.3949 80.6055 23.6165C80.2134 23.8324 79.9038 24.1364 79.6765 24.5284C79.4549 24.9148 79.3441 25.3693 79.3441 25.892V33H75.1765ZM90.7177 33.2472C89.3484 33.2472 88.1665 32.9773 87.1722 32.4375C86.1836 31.892 85.4222 31.1165 84.8881 30.1108C84.3597 29.0994 84.0955 27.8977 84.0955 26.5057C84.0955 25.1534 84.3626 23.9716 84.8967 22.9602C85.4308 21.9432 86.1836 21.1534 87.1552 20.5909C88.1268 20.0227 89.2717 19.7386 90.5898 19.7386C91.5217 19.7386 92.3739 19.8835 93.1467 20.1733C93.9194 20.4631 94.587 20.892 95.1495 21.4602C95.712 22.0284 96.1495 22.7301 96.462 23.5653C96.7745 24.3949 96.9308 25.3466 96.9308 26.4205V27.4602H85.5529V25.0398H93.0529C93.0472 24.5966 92.9421 24.2017 92.7376 23.8551C92.533 23.5085 92.2518 23.2386 91.8938 23.0455C91.5415 22.8466 91.1353 22.7472 90.6751 22.7472C90.2092 22.7472 89.7915 22.8523 89.4222 23.0625C89.0529 23.267 88.7603 23.5483 88.5444 23.9062C88.3285 24.2585 88.2148 24.6591 88.2035 25.108V27.571C88.2035 28.1051 88.3086 28.5739 88.5188 28.9773C88.729 29.375 89.0273 29.6847 89.4137 29.9062C89.8001 30.1278 90.2603 30.2386 90.7944 30.2386C91.1637 30.2386 91.4989 30.1875 91.8001 30.0852C92.1012 29.983 92.3597 29.8324 92.5756 29.6335C92.7915 29.4347 92.9535 29.1903 93.0614 28.9006L96.8881 29.0114C96.729 29.8693 96.3796 30.6165 95.8398 31.2528C95.3058 31.8835 94.604 32.375 93.7347 32.7273C92.8654 33.0739 91.8597 33.2472 90.7177 33.2472ZM105.179 33.2472C103.809 33.2472 102.627 32.9773 101.633 32.4375C100.645 31.892 99.8832 31.1165 99.3491 30.1108C98.8207 29.0994 98.5565 27.8977 98.5565 26.5057C98.5565 25.1534 98.8235 23.9716 99.3576 22.9602C99.8917 21.9432 100.645 21.1534 101.616 20.5909C102.588 20.0227 103.733 19.7386 105.051 19.7386C105.983 19.7386 106.835 19.8835 107.608 20.1733C108.38 20.4631 109.048 20.892 109.61 21.4602C110.173 22.0284 110.61 22.7301 110.923 23.5653C111.235 24.3949 111.392 25.3466 111.392 26.4205V27.4602H100.014V25.0398H107.514C107.508 24.5966 107.403 24.2017 107.199 23.8551C106.994 23.5085 106.713 23.2386 106.355 23.0455C106.002 22.8466 105.596 22.7472 105.136 22.7472C104.67 22.7472 104.252 22.8523 103.883 23.0625C103.514 23.267 103.221 23.5483 103.005 23.9062C102.789 24.2585 102.676 24.6591 102.664 25.108V27.571C102.664 28.1051 102.77 28.5739 102.98 28.9773C103.19 29.375 103.488 29.6847 103.875 29.9062C104.261 30.1278 104.721 30.2386 105.255 30.2386C105.625 30.2386 105.96 30.1875 106.261 30.0852C106.562 29.983 106.821 29.8324 107.037 29.6335C107.252 29.4347 107.414 29.1903 107.522 28.9006L111.349 29.0114C111.19 29.8693 110.841 30.6165 110.301 31.2528C109.767 31.8835 109.065 32.375 108.196 32.7273C107.326 33.0739 106.321 33.2472 105.179 33.2472ZM117.688 25.5341V33H113.52V19.9091H117.483V22.3125H117.628C117.918 21.5114 118.412 20.8835 119.111 20.429C119.81 19.9688 120.642 19.7386 121.608 19.7386C122.529 19.7386 123.327 19.946 124.003 20.3608C124.685 20.7699 125.213 21.3437 125.588 22.0824C125.969 22.8153 126.157 23.6733 126.151 24.6562V33H121.983V25.4744C121.989 24.7472 121.804 24.179 121.429 23.7699C121.06 23.3608 120.546 23.1562 119.887 23.1562C119.449 23.1562 119.063 23.2528 118.728 23.446C118.398 23.6335 118.142 23.9034 117.961 24.2557C117.784 24.608 117.694 25.0341 117.688 25.5341ZM138.166 20.7784C138.109 20.1534 137.856 19.6676 137.407 19.321C136.964 18.9688 136.331 18.7926 135.507 18.7926C134.961 18.7926 134.507 18.8636 134.143 19.0057C133.779 19.1477 133.507 19.3438 133.325 19.5938C133.143 19.8381 133.049 20.1193 133.044 20.4375C133.032 20.6989 133.083 20.929 133.197 21.1278C133.316 21.3267 133.487 21.5028 133.708 21.6562C133.936 21.804 134.208 21.9347 134.527 22.0483C134.845 22.1619 135.203 22.2614 135.6 22.3466L137.1 22.6875C137.964 22.875 138.725 23.125 139.385 23.4375C140.049 23.75 140.606 24.1222 141.055 24.554C141.51 24.9858 141.853 25.483 142.086 26.0455C142.319 26.608 142.439 27.2386 142.444 27.9375C142.439 29.0398 142.16 29.9858 141.609 30.7756C141.058 31.5653 140.265 32.1705 139.231 32.5909C138.203 33.0114 136.961 33.2216 135.507 33.2216C134.047 33.2216 132.774 33.0028 131.689 32.5653C130.603 32.1278 129.76 31.4631 129.157 30.571C128.555 29.679 128.245 28.5511 128.228 27.1875H132.268C132.302 27.75 132.453 28.2188 132.72 28.5938C132.987 28.9688 133.353 29.2528 133.819 29.446C134.291 29.6392 134.836 29.7358 135.456 29.7358C136.024 29.7358 136.507 29.6591 136.904 29.5057C137.308 29.3523 137.618 29.1392 137.833 28.8665C138.049 28.5937 138.16 28.2812 138.166 27.929C138.16 27.5994 138.058 27.3182 137.859 27.0852C137.66 26.8466 137.353 26.642 136.939 26.4716C136.529 26.2955 136.007 26.1335 135.37 25.9858L133.547 25.5597C132.035 25.2131 130.845 24.6534 129.975 23.8807C129.106 23.1023 128.674 22.0511 128.68 20.7273C128.674 19.6477 128.964 18.7017 129.549 17.8892C130.135 17.0767 130.944 16.4432 131.978 15.9886C133.012 15.5341 134.191 15.3068 135.515 15.3068C136.868 15.3068 138.041 15.5369 139.035 15.9972C140.035 16.4517 140.811 17.0909 141.362 17.9148C141.913 18.7386 142.194 19.6932 142.206 20.7784H138.166ZM151.964 19.9091V22.9773H143.706V19.9091H151.964ZM145.436 16.7727H149.603V28.8835C149.603 29.1392 149.643 29.3466 149.723 29.5057C149.808 29.6591 149.93 29.7699 150.089 29.8381C150.248 29.9006 150.439 29.9318 150.66 29.9318C150.819 29.9318 150.987 29.9176 151.163 29.8892C151.345 29.8551 151.481 29.8267 151.572 29.804L152.203 32.8125C152.004 32.8693 151.723 32.9403 151.359 33.0256C151.001 33.1108 150.572 33.1648 150.072 33.1875C149.095 33.233 148.257 33.1193 147.558 32.8466C146.865 32.5682 146.333 32.1364 145.964 31.5511C145.6 30.9659 145.424 30.2301 145.436 29.3438V16.7727ZM154.091 33V19.9091H158.258V33H154.091ZM156.179 18.3835C155.593 18.3835 155.091 18.1903 154.67 17.804C154.25 17.4119 154.039 16.9403 154.039 16.3892C154.039 15.8437 154.25 15.3778 154.67 14.9915C155.091 14.5994 155.593 14.4034 156.179 14.4034C156.77 14.4034 157.272 14.5994 157.687 14.9915C158.108 15.3778 158.318 15.8437 158.318 16.3892C158.318 16.9403 158.108 17.4119 157.687 17.804C157.272 18.1903 156.77 18.3835 156.179 18.3835ZM168.3 19.9091V22.9773H160.042V19.9091H168.3ZM161.772 16.7727H165.939V28.8835C165.939 29.1392 165.979 29.3466 166.059 29.5057C166.144 29.6591 166.266 29.7699 166.425 29.8381C166.584 29.9006 166.775 29.9318 166.996 29.9318C167.155 29.9318 167.323 29.9176 167.499 29.8892C167.681 29.8551 167.817 29.8267 167.908 29.804L168.539 32.8125C168.34 32.8693 168.059 32.9403 167.695 33.0256C167.337 33.1108 166.908 33.1648 166.408 33.1875C165.431 33.233 164.593 33.1193 163.894 32.8466C163.201 32.5682 162.669 32.1364 162.3 31.5511C161.936 30.9659 161.76 30.2301 161.772 29.3438V16.7727ZM176.397 33.2472C175.016 33.2472 173.831 32.9631 172.843 32.3949C171.86 31.8267 171.104 31.0369 170.576 30.0256C170.047 29.0085 169.783 27.8324 169.783 26.4972C169.783 25.1562 170.047 23.9801 170.576 22.9688C171.11 21.9517 171.868 21.1591 172.851 20.5909C173.84 20.0227 175.019 19.7386 176.388 19.7386C177.598 19.7386 178.652 19.9574 179.55 20.3949C180.453 20.8324 181.158 21.4517 181.664 22.2528C182.175 23.0483 182.445 23.983 182.473 25.0568H178.578C178.499 24.3864 178.272 23.8608 177.897 23.4801C177.527 23.0994 177.044 22.9091 176.448 22.9091C175.965 22.9091 175.542 23.0455 175.178 23.3182C174.814 23.5852 174.53 23.983 174.326 24.5114C174.127 25.0341 174.027 25.6818 174.027 26.4545C174.027 27.2273 174.127 27.8807 174.326 28.4148C174.53 28.9432 174.814 29.3437 175.178 29.6165C175.542 29.8835 175.965 30.017 176.448 30.017C176.834 30.017 177.175 29.9347 177.471 29.7699C177.772 29.6051 178.019 29.3636 178.212 29.0455C178.405 28.7216 178.527 28.3295 178.578 27.8693H182.473C182.434 28.9489 182.164 29.892 181.664 30.6989C181.169 31.5057 180.473 32.1335 179.576 32.5824C178.684 33.0256 177.624 33.2472 176.397 33.2472ZM188.774 25.5341V33H184.606V15.5455H188.637V22.3125H188.782C189.078 21.5057 189.561 20.875 190.231 20.4205C190.907 19.9659 191.734 19.7386 192.711 19.7386C193.632 19.7386 194.433 19.9432 195.115 20.3523C195.797 20.7557 196.325 21.3267 196.7 22.0653C197.081 22.804 197.268 23.6676 197.262 24.6562V33H193.095V25.4744C193.1 24.7472 192.919 24.179 192.549 23.7699C192.18 23.3608 191.66 23.1562 190.99 23.1562C190.552 23.1562 190.166 23.2528 189.831 23.446C189.501 23.6335 189.243 23.9034 189.055 24.2557C188.873 24.608 188.779 25.0341 188.774 25.5341Z" fill="#252525"/>
</svg>
